<?xml version="1.0" standalone="no"?>
<!DOCTYPE svg PUBLIC "-//W3C//DTD SVG 20010904//EN"
 "http://www.w3.org/TR/2001/REC-SVG-20010904/DTD/svg10.dtd">
<svg version="1.0" xmlns="http://www.w3.org/2000/svg"
 width="1000.000000pt" height="1000.000000pt" viewBox="0 0 1000.000000 1000.000000"
 preserveAspectRatio="xMidYMid meet">

<g transform="translate(0.000000,1000.000000) scale(0.100000,-0.100000)"
fill="#000000" stroke="none">
<path d="M0 5000 l0 -5000 5000 0 5000 0 0 5000 0 5000 -5000 0 -5000 0 0
-5000z m4915 2754 c32 -34 32 -74 0 -112 l-25 -30 0 -266 0 -265 43 -11 c74
-19 204 -71 262 -106 31 -19 59 -34 63 -34 4 0 91 84 194 187 168 168 188 191
188 221 0 22 8 41 25 57 52 53 145 16 145 -57 -1 -52 -40 -88 -97 -88 -23 0
-64 -36 -237 -209 l-209 -210 -44 30 c-73 51 -204 108 -303 133 l-95 24 -3
292 -2 292 -25 30 c-52 62 -17 148 60 148 26 0 43 -7 60 -26z m1084 -359 c60
-30 58 -125 -3 -150 -18 -8 -41 -12 -52 -9 -15 4 -103 -80 -378 -355 l-359
-359 35 -44 c74 -90 148 -265 148 -349 0 -63 -36 -59 516 -59 l503 0 25 25
c60 60 162 2 142 -80 -16 -64 -96 -86 -142 -40 l-25 25 -503 0 c-553 0 -516 4
-516 -59 0 -82 -78 -270 -144 -347 l-36 -42 361 -358 c334 -333 363 -359 401
-365 88 -12 105 -119 24 -157 -53 -26 -116 12 -116 70 0 30 -35 68 -362 395
l-361 362 -41 -34 c-57 -46 -140 -90 -215 -114 -35 -12 -68 -21 -73 -21 -4 0
-8 19 -8 43 l0 42 58 17 c137 41 287 165 356 297 56 107 76 188 76 306 0 154
-42 275 -138 398 -74 95 -226 195 -319 213 -31 6 -33 9 -33 50 0 24 4 44 8 44
5 0 38 -9 73 -21 75 -24 158 -68 215 -114 l41 -34 362 363 c199 199 359 365
355 368 -15 16 9 70 39 89 38 23 49 23 86 4z m-1369 -423 l0 -318 -67 -11
c-81 -14 -208 -75 -280 -135 -147 -123 -227 -293 -226 -483 1 -187 56 -320
187 -451 95 -95 208 -158 319 -177 l67 -11 0 -313 0 -313 -55 0 -55 0 -2 166
-3 167 -72 18 c-79 21 -179 64 -244 105 l-42 26 -116 -116 c-64 -64 -121 -116
-126 -116 -13 0 -235 222 -235 235 0 5 52 62 116 126 l116 116 -26 42 c-38 59
-74 144 -101 236 l-23 80 -171 3 -171 2 0 170 0 170 171 2 172 3 19 68 c23 84
58 169 99 238 l30 52 -115 116 c-64 64 -116 121 -116 126 0 13 222 235 235
235 5 0 62 -52 125 -115 l116 -116 94 50 c52 27 133 61 180 74 l85 25 3 171 2
171 55 0 55 0 0 -318z m1383 186 c78 -41 52 -158 -35 -158 -30 0 -53 -20 -221
-188 l-188 -188 50 -97 c48 -94 68 -146 91 -234 l11 -43 265 0 266 0 30 25
c67 56 147 10 138 -80 -6 -62 -95 -87 -142 -40 l-25 25 -299 2 -298 3 -8 44
c-17 102 -85 264 -149 357 l-28 41 210 209 c188 188 209 212 209 242 0 24 9
42 29 63 31 31 59 36 94 17z m382 -1243 c54 -53 16 -145 -60 -145 -26 0 -43 7
-59 25 l-23 25 -266 0 -266 0 -11 -42 c-21 -82 -52 -164 -96 -247 l-45 -85
188 -188 c168 -168 191 -188 221 -188 72 0 110 -94 60 -147 -28 -30 -89 -32
-118 -3 -21 21 -36 67 -26 78 4 3 -91 104 -210 223 l-217 217 25 33 c70 95
127 233 162 392 l6 27 294 0 c258 0 295 2 307 16 33 40 100 44 134 9z m-677
-1095 c45 0 92 -46 92 -90 0 -44 -39 -80 -86 -80 -51 0 -84 31 -84 79 0 34
-14 50 -187 223 l-188 187 -116 -58 c-64 -32 -149 -66 -188 -76 l-71 -17 0
-269 0 -268 25 -25 c35 -35 33 -79 -4 -117 -33 -32 -58 -36 -100 -14 -49 25
-56 86 -16 133 l25 30 0 294 0 295 83 20 c110 27 218 73 297 126 l65 44 210
-209 c189 -187 214 -208 243 -208z m-2770 -1757 l2 -283 -80 0 -80 0 0 278 c0
153 3 282 7 286 4 4 39 5 78 4 l70 -3 3 -282z m-1230 230 c63 -30 102 -82 110
-148 l5 -45 -82 0 c-75 0 -81 1 -81 21 0 11 -13 34 -29 50 -55 54 -139 29
-161 -49 -23 -84 -5 -173 41 -206 54 -37 141 -7 154 54 l7 30 74 0 74 0 0 -35
c0 -72 -60 -149 -137 -177 -48 -16 -186 -16 -236 1 -92 31 -146 112 -154 231
-9 133 36 233 123 275 86 41 205 40 292 -2z m2832 25 c0 -10 79 -301 83 -304
2 -3 22 64 44 148 l40 153 116 3 117 3 0 -271 0 -270 -86 0 -87 0 5 175 c3 96
4 174 3 173 -2 -2 -21 -73 -44 -158 -23 -85 -44 -163 -47 -172 -4 -15 -17 -18
-72 -18 l-67 0 -39 148 c-63 235 -61 234 -58 32 l4 -180 -76 0 -76 0 0 270 0
270 120 0 c66 0 120 -1 120 -2z m3024 -32 c94 -46 133 -131 124 -271 -7 -104
-40 -159 -123 -200 -58 -29 -65 -30 -222 -34 l-163 -3 0 272 0 273 164 -5
c154 -4 167 -6 220 -32z m-5308 -114 c54 -27 64 -55 64 -172 0 -102 10 -130
46 -130 12 0 14 -10 12 -42 -3 -38 -6 -43 -38 -51 -46 -12 -112 -1 -138 24
-21 19 -22 19 -59 0 -82 -41 -170 -39 -223 5 -26 22 -30 33 -30 74 0 27 5 60
12 74 18 40 86 67 184 74 78 4 84 6 84 26 0 12 -5 27 -12 34 -17 17 -84 15
-102 -3 -10 -11 -36 -15 -85 -15 -67 0 -71 1 -71 23 1 37 36 70 97 93 56 21
206 13 259 -14z m469 -42 l0 -65 -35 -3 c-96 -7 -110 -30 -110 -182 l0 -100
-75 0 -75 0 0 205 0 205 65 0 c63 0 65 -1 65 -25 0 -14 5 -25 10 -25 6 0 10 5
10 10 0 21 64 50 105 48 l40 -3 0 -65z m626 55 c85 -30 129 -98 129 -200 0
-110 -45 -171 -148 -201 -107 -31 -229 2 -277 74 -32 49 -43 136 -25 202 15
55 73 113 127 128 58 15 145 14 194 -3z m535 -13 c38 -19 64 -55 64 -87 0 -12
-15 -15 -65 -15 -52 0 -69 4 -86 21 -28 28 -94 24 -94 -6 0 -16 11 -22 60 -33
113 -24 138 -34 167 -62 55 -56 31 -157 -47 -191 -132 -58 -318 -13 -341 84
l-6 27 67 0 c57 0 69 -3 85 -22 14 -18 29 -23 64 -23 31 0 50 5 56 15 15 24
-8 38 -101 58 -48 10 -99 26 -113 36 -68 44 -57 158 19 199 62 33 205 33 271
-1z m1500 0 c54 -27 64 -55 64 -172 0 -102 10 -130 46 -130 12 0 14 -10 12
-42 -3 -38 -6 -43 -38 -51 -46 -12 -112 -1 -138 24 -21 19 -22 19 -59 0 -82
-41 -170 -39 -223 5 -26 22 -30 33 -30 74 0 27 5 60 12 74 18 40 86 67 184 74
78 4 84 6 84 26 0 12 -5 27 -12 34 -17 17 -84 15 -102 -3 -10 -11 -36 -15 -85
-15 -67 0 -71 1 -71 23 1 37 36 70 97 93 56 21 206 13 259 -14z m469 -42 l0
-65 -35 -3 c-96 -7 -110 -30 -110 -182 l0 -100 -75 0 -75 0 0 205 0 205 65 0
c63 0 65 -1 65 -25 0 -14 5 -25 10 -25 6 0 10 5 10 10 0 21 64 50 105 48 l40
-3 0 -65z m403 40 c56 -32 83 -76 89 -150 l6 -60 -158 0 -157 0 6 -27 c9 -39
42 -63 84 -63 37 0 72 23 72 47 0 10 19 13 75 13 71 0 75 -1 75 -22 0 -39 -38
-88 -84 -108 -127 -57 -304 -21 -352 72 -22 42 -29 133 -14 188 15 55 72 113
127 128 65 19 183 9 231 -18z m455 19 c47 -13 94 -55 103 -91 l6 -28 -69 0
c-56 0 -72 4 -86 20 -30 36 -121 19 -98 -18 4 -6 46 -19 94 -28 106 -20 148
-45 161 -98 16 -62 -8 -116 -64 -143 -60 -30 -141 -38 -215 -23 -47 10 -68 21
-97 50 -21 21 -38 47 -38 59 0 19 5 21 65 21 55 0 68 -3 89 -25 28 -28 71 -33
101 -11 31 22 11 43 -52 56 -109 22 -136 32 -165 60 -22 22 -28 38 -28 70 0
72 28 104 120 134 28 9 135 6 173 -5z m1372 0 c77 -21 135 -106 135 -196 l0
-33 -155 0 c-149 0 -155 -1 -155 -20 0 -33 44 -70 82 -70 38 0 78 24 78 46 0
11 16 14 76 14 l77 0 -6 -30 c-15 -70 -76 -114 -177 -126 -170 -20 -280 64
-280 213 0 102 41 166 125 197 48 18 145 20 200 5z m344 -41 c47 -161 64 -209
71 -202 4 5 22 62 41 127 l33 117 73 0 c40 0 73 -3 73 -8 0 -4 -34 -95 -75
-202 -41 -107 -75 -196 -75 -198 0 -1 -37 -2 -82 0 l-82 3 -77 203 -77 202 83
0 82 0 12 -42z m-5949 -738 c0 -5 -4 -10 -10 -10 -5 0 -10 5 -10 10 0 6 5 10
10 10 6 0 10 -4 10 -10z m1035 0 c3 -5 -1 -10 -9 -10 -9 0 -16 5 -16 10 0 6 4
10 9 10 6 0 13 -4 16 -10z m305 -68 l0 -79 -39 -1 c-46 -2 -64 15 -64 60 0 37
28 61 61 53 18 -4 22 -1 22 20 0 14 5 25 10 25 6 0 10 -33 10 -78z m1305 68
c3 -5 -1 -10 -9 -10 -9 0 -16 5 -16 10 0 6 4 10 9 10 6 0 13 -4 16 -10z m1885
-64 c0 -50 4 -76 13 -80 6 -3 3 -5 -8 -3 -18 2 -20 11 -23 80 -2 48 1 77 8 77
6 0 10 -29 10 -74z m790 64 c0 -5 -4 -10 -10 -10 -5 0 -10 5 -10 10 0 6 5 10
10 10 6 0 10 -4 10 -10z m-6417 -7 c-21 -4 -23 -10 -23 -74 0 -89 -18 -90 -22
-2 -3 62 -5 68 -28 74 -16 5 -4 7 35 7 33 -1 50 -3 38 -5z m4277 -13 c0 -5 7
-10 15 -10 8 0 15 -4 15 -10 0 -5 -7 -10 -16 -10 -12 0 -14 -9 -12 -42 2 -24
8 -43 15 -43 6 0 15 -4 20 -8 4 -5 -5 -7 -22 -5 -28 3 -30 6 -33 48 -2 24 -8
48 -14 51 -7 5 -6 12 3 23 16 18 29 20 29 6z m1890 0 c0 -5 7 -10 15 -10 8 0
15 -4 15 -10 0 -5 -7 -10 -16 -10 -12 0 -14 -9 -12 -42 2 -28 7 -42 16 -40 6
1 12 -3 12 -9 0 -6 -10 -9 -22 -7 -19 2 -24 10 -26 48 -2 24 -8 48 -14 51 -7
5 -6 12 3 23 16 18 29 20 29 6z m-4483 -32 c0 -39 -12 -58 -38 -58 -11 0 -19
-4 -19 -10 0 -5 9 -10 19 -10 47 0 67 -30 39 -58 -29 -29 -114 2 -88 33 12 15
15 54 6 76 -9 22 21 52 45 46 11 -3 22 -1 25 4 9 15 11 11 11 -23z m-1447 -33
c0 -24 5 -47 10 -50 20 -12 40 17 40 56 0 21 5 41 10 44 6 4 10 -16 10 -53 l0
-60 -42 2 -43 1 -3 58 c-2 39 0 57 7 52 6 -3 11 -26 11 -50z m348 45 c4 -1 -4
-5 -18 -9 -22 -6 -25 -13 -28 -54 -4 -67 -22 -58 -22 11 l0 57 30 -1 c17 -1
33 -3 38 -4z m227 2 c37 17 55 -4 55 -63 0 -27 -4 -49 -10 -49 -5 0 -10 23
-10 51 0 47 -2 50 -22 47 -20 -3 -23 -10 -26 -50 -5 -71 -22 -58 -21 15 0 34
3 57 5 50 4 -9 11 -9 29 -1z m285 -58 c0 -30 -4 -54 -10 -54 -6 0 -10 27 -10
61 0 37 4 58 10 54 6 -3 10 -31 10 -61z m241 59 c33 20 54 -2 57 -62 2 -31 -1
-51 -7 -51 -6 0 -11 20 -11 45 0 32 -5 47 -15 51 -25 10 -45 -16 -45 -57 0
-22 -4 -39 -10 -39 -11 0 -14 103 -3 114 4 4 9 3 11 -3 2 -7 10 -6 23 2z m789
-53 c0 -33 -4 -60 -10 -60 -11 0 -14 103 -3 113 12 12 13 8 13 -53z m594 44
c9 -8 16 -24 16 -35 0 -16 -7 -19 -40 -19 -42 0 -52 -13 -22 -29 11 -6 24 -6
33 0 22 14 33 11 19 -6 -18 -22 -67 -19 -80 4 -33 63 28 132 74 85z m284 4 c7
-7 12 -28 12 -48 0 -20 5 -41 11 -47 8 -8 -5 -10 -43 -9 -47 1 -53 4 -56 24
-3 18 4 26 32 37 44 19 48 40 6 32 -29 -6 -42 6 -17 16 22 9 43 7 55 -5z m282
2 c16 -10 8 -13 -27 -10 -15 1 -23 -4 -23 -14 0 -9 8 -16 19 -16 24 0 44 -24
39 -47 -4 -22 -69 -26 -76 -5 -3 11 0 12 17 3 12 -7 26 -9 31 -6 18 11 11 34
-11 37 -31 4 -46 32 -30 52 15 18 39 20 61 6z m450 -50 c0 -33 -4 -60 -10 -60
-11 0 -14 103 -3 113 12 12 13 8 13 -53z m232 -12 c-2 -27 -8 -48 -13 -48 -10
0 -12 103 -2 114 13 12 20 -18 15 -66z m68 53 c13 -25 13 -101 1 -101 -6 0
-11 21 -13 48 -3 40 -6 47 -26 50 -12 2 -20 8 -17 13 10 16 44 10 55 -10z
m548 3 c42 -29 22 -104 -28 -104 -56 0 -80 60 -40 100 24 24 38 25 68 4z m509
0 c2 -7 -5 -10 -20 -7 -40 8 -41 -15 -2 -31 36 -15 44 -33 23 -54 -15 -15 -64
-16 -73 -1 -10 16 1 22 22 11 20 -10 43 -6 43 9 0 6 -13 15 -29 20 -36 13 -45
33 -24 54 17 18 54 17 60 -1z m291 0 c42 -29 22 -104 -28 -104 -56 0 -80 60
-40 100 24 24 38 25 68 4z m472 -39 c0 -47 8 -59 34 -49 11 4 16 19 16 49 0
24 5 47 10 50 6 4 10 -16 10 -52 l0 -58 -37 -3 c-21 -1 -40 3 -45 10 -12 19
-10 110 2 103 6 -3 10 -26 10 -50z m560 -11 c0 -30 -4 -54 -10 -54 -6 0 -10
27 -10 61 0 37 4 58 10 54 6 -3 10 -31 10 -61z m284 53 c21 -15 24 -70 6 -92
-15 -18 -61 -20 -78 -3 -7 7 -12 27 -12 44 0 54 43 81 84 51z m261 5 c37 17
55 -4 55 -63 0 -27 -4 -49 -10 -49 -5 0 -10 23 -10 51 0 47 -2 50 -22 47 -20
-3 -23 -10 -26 -50 -5 -71 -22 -58 -21 15 0 34 3 57 5 50 4 -9 11 -9 29 -1z
m325 -2 c16 -10 8 -13 -27 -10 -15 1 -23 -4 -23 -14 0 -9 8 -16 19 -16 24 0
44 -24 39 -47 -4 -22 -69 -26 -76 -5 -3 11 0 12 17 3 12 -7 26 -9 31 -6 18 11
11 34 -11 37 -31 4 -46 32 -30 52 15 18 39 20 61 6z"/>
<path d="M4820 7730 c-11 -11 -20 -27 -20 -35 0 -17 35 -55 50 -55 6 0 22 11
35 24 26 26 25 51 -3 74 -22 17 -39 15 -62 -8z"/>
<path d="M5690 7370 c-11 -11 -20 -23 -20 -28 0 -20 34 -52 55 -52 21 0 55 32
55 52 0 14 -39 48 -55 48 -8 0 -24 -9 -35 -20z"/>
<path d="M5922 7358 c-20 -20 -15 -66 9 -78 30 -17 68 -4 75 24 9 36 -12 66
-44 66 -16 0 -33 -5 -40 -12z"/>
<path d="M6460 6070 c-11 -11 -20 -27 -20 -35 0 -16 34 -55 48 -55 20 0 52 34
52 55 0 21 -32 55 -52 55 -5 0 -17 -9 -28 -20z"/>
<path d="M5925 4780 c-15 -16 -17 -26 -9 -48 17 -50 94 -39 94 14 0 49 -52 70
-85 34z"/>
<path d="M5935 7106 c-20 -31 -6 -63 30 -72 46 -12 81 42 49 77 -24 26 -60 24
-79 -5z"/>
<path d="M6302 6248 c-18 -18 -15 -53 6 -71 24 -22 45 -21 65 1 34 37 15 82
-33 82 -14 0 -31 -5 -38 -12z"/>
<path d="M6305 5886 c-16 -16 -23 -31 -19 -43 8 -22 33 -43 51 -43 18 0 53 37
53 55 0 17 -35 55 -50 55 -6 0 -22 -11 -35 -24z"/>
<path d="M5941 5016 c-21 -26 -10 -69 22 -80 23 -8 31 -6 49 12 18 18 20 26
12 49 -7 21 -17 29 -40 31 -18 2 -36 -3 -43 -12z"/>
<path d="M5686 4764 c-22 -21 -20 -47 4 -69 44 -40 107 25 69 71 -15 19 -54
18 -73 -2z"/>
<path d="M4814 4395 c-20 -31 -10 -63 23 -71 35 -9 57 7 61 42 7 52 -55 74
-84 29z"/>
<path d="M7360 3050 l0 -140 45 0 c90 0 125 40 125 142 0 96 -39 138 -125 138
l-45 0 0 -140z"/>
<path d="M2082 2945 c-28 -12 -33 -19 -30 -42 3 -25 8 -28 41 -31 52 -4 87 19
87 58 0 27 -3 30 -32 30 -18 -1 -48 -7 -66 -15z"/>
<path d="M3227 3093 c-40 -10 -60 -106 -36 -170 13 -35 25 -43 71 -43 62 0 84
40 76 132 -7 73 -43 99 -111 81z"/>
<path d="M5212 2945 c-28 -12 -33 -19 -30 -42 3 -25 8 -28 41 -31 52 -4 87 19
87 58 0 27 -3 30 -32 30 -18 -1 -48 -7 -66 -15z"/>
<path d="M6077 3082 c-10 -10 -17 -26 -17 -35 0 -14 12 -17 75 -17 81 0 88 6
59 48 -20 29 -93 31 -117 4z"/>
<path d="M7941 3074 c-12 -15 -21 -31 -21 -35 0 -5 34 -9 75 -9 67 0 75 2 75
19 0 31 -28 51 -70 51 -30 0 -43 -6 -59 -26z"/>
<path d="M3750 2340 c-13 -25 -5 -56 17 -64 24 -10 44 14 41 48 -4 39 -40 49
-58 16z"/>
<path d="M3015 2351 c-9 -16 3 -31 26 -31 14 0 19 6 17 17 -4 20 -33 29 -43
14z"/>
<path d="M3007 2254 c-12 -12 4 -24 34 -24 19 0 29 5 29 15 0 15 -50 22 -63 9z"/>
<path d="M4057 2354 c-15 -15 -6 -24 24 -24 20 0 29 4 27 13 -5 14 -40 21 -51
11z"/>
<path d="M4362 2312 c-15 -2 -22 -9 -20 -19 4 -20 19 -26 36 -14 22 13 10 36
-16 33z"/>
<path d="M5922 2348 c-32 -32 2 -87 40 -67 29 16 20 79 -11 79 -9 0 -22 -5
-29 -12z"/>
<path d="M6722 2348 c-32 -32 2 -87 40 -67 29 16 20 79 -11 79 -9 0 -22 -5
-29 -12z"/>
<path d="M8037 2353 c-12 -12 -7 -60 7 -72 30 -25 61 13 45 57 -8 21 -38 30
-52 15z"/>
</g>
</svg>
